<svg width="675" height="675" viewBox="0 0 675 675" fill="none" xmlns="http://www.w3.org/2000/svg">
<path d="M373.2 657.5C311.4 657.5 255.6 643.7 205.8 616.1C156.6 588.5 117.6 550.4 88.8 501.8C60.6 453.2 46.5 398.6 46.5 338C46.5 277.4 60.6 222.8 88.8 174.2C117.6 125.6 156.6 87.5 205.8 59.9C255.6 32.3 311.4 18.5 373.2 18.5C418.8 18.5 460.8 26 499.2 41C537.6 55.4 570.3 77 597.3 105.8L568.5 135.5C518.1 85.7 453.6 60.8 375 60.8C322.2 60.8 274.2 72.8 231 96.8C187.8 120.8 153.9 154.1 129.3 196.7C104.7 238.7 92.4 285.8 92.4 338C92.4 390.2 104.7 437.6 129.3 480.2C153.9 522.2 187.8 555.2 231 579.2C274.2 603.2 322.2 615.2 375 615.2C453 615.2 517.5 590 568.5 539.6L597.3 569.3C570.3 598.1 537.3 620 498.3 635C459.9 650 418.2 657.5 373.2 657.5Z" fill="#FF5722" fill-opacity="0.5"/>
<path d="M375.1 674.75C309.867 674.75 250.967 660.183 198.4 631.05C146.467 601.917 105.3 561.7 74.9 510.4C45.1333 459.1 30.25 401.467 30.25 337.5C30.25 273.533 45.1333 215.9 74.9 164.6C105.3 113.3 146.467 73.0833 198.4 43.95C250.967 14.8166 309.867 0.249939 375.1 0.249939C423.233 0.249939 467.567 8.16662 508.1 24C548.633 39.2 583.15 62 611.65 92.4L581.25 123.75C528.05 71.1833 459.967 44.9 377 44.9C321.267 44.9 270.6 57.5666 225 82.9C179.4 108.233 143.617 143.383 117.65 188.35C91.6833 232.683 78.7 282.4 78.7 337.5C78.7 392.6 91.6833 442.633 117.65 487.6C143.617 531.933 179.4 566.767 225 592.1C270.6 617.433 321.267 630.1 377 630.1C459.333 630.1 527.417 603.5 581.25 550.3L611.65 581.65C583.15 612.05 548.317 635.167 507.15 651C466.617 666.833 422.6 674.75 375.1 674.75Z" fill="black"/>
<g filter="url(#filter0_d)">
<path d="M429.844 510H385.363V354.895H216.199V510H171.949V174.438H216.199V318.711H385.363V174.438H429.844V510Z" fill="#1D2D50"/>
</g>
<path d="M619.555 210.852H565.164C574.997 223.297 581.22 238.508 583.832 256.484H630.156L619.555 292.898H584.523C581.758 320.247 570.926 340.836 552.027 354.664C533.129 368.492 506.855 375.406 473.207 375.406L586.828 507.234V510H534.512L412.363 367.801L412.133 338.992H469.52C488.725 338.839 504.32 334.69 516.305 326.547C528.289 318.25 535.895 307.034 539.121 292.898H405.68L416.281 256.484H538.66C531.285 227.292 508.699 212.081 470.902 210.852H406.141L416.973 174.438H630.156L619.555 210.852Z" fill="#F29D83"/>
<g filter="url(#filter1_d)">
<path d="M628.555 205.852H574.164C583.997 218.297 590.22 233.508 592.832 251.484H639.156L628.555 287.898H593.523C590.758 315.247 579.926 335.836 561.027 349.664C542.129 363.492 515.855 370.406 482.207 370.406L595.828 502.234V505H543.512L421.363 362.801L421.133 333.992H478.52C497.725 333.839 513.32 329.69 525.305 321.547C537.289 313.25 544.895 302.034 548.121 287.898H414.68L425.281 251.484H547.66C540.285 222.292 517.699 207.081 479.902 205.852H415.141L425.973 169.438H639.156L628.555 205.852Z" fill="black"/>
</g>
<defs>
<filter id="filter0_d" x="167.949" y="174.438" width="265.895" height="343.562" filterUnits="userSpaceOnUse" color-interpolation-filters="sRGB">
<feFlood flood-opacity="0" result="BackgroundImageFix"/>
<feColorMatrix in="SourceAlpha" type="matrix" values="0 0 0 0 0 0 0 0 0 0 0 0 0 0 0 0 0 0 127 0"/>
<feOffset dy="4"/>
<feGaussianBlur stdDeviation="2"/>
<feColorMatrix type="matrix" values="0 0 0 0 0 0 0 0 0 0 0 0 0 0 0 0 0 0 0.25 0"/>
<feBlend mode="normal" in2="BackgroundImageFix" result="effect1_dropShadow"/>
<feBlend mode="normal" in="SourceGraphic" in2="effect1_dropShadow" result="shape"/>
</filter>
<filter id="filter1_d" x="410.68" y="169.438" width="232.476" height="343.562" filterUnits="userSpaceOnUse" color-interpolation-filters="sRGB">
<feFlood flood-opacity="0" result="BackgroundImageFix"/>
<feColorMatrix in="SourceAlpha" type="matrix" values="0 0 0 0 0 0 0 0 0 0 0 0 0 0 0 0 0 0 127 0"/>
<feOffset dy="4"/>
<feGaussianBlur stdDeviation="2"/>
<feColorMatrix type="matrix" values="0 0 0 0 0 0 0 0 0 0 0 0 0 0 0 0 0 0 0.25 0"/>
<feBlend mode="normal" in2="BackgroundImageFix" result="effect1_dropShadow"/>
<feBlend mode="normal" in="SourceGraphic" in2="effect1_dropShadow" result="shape"/>
</filter>
</defs>
</svg>
